<svg width="36" height="32" viewBox="0 0 36 32" fill="none" xmlns="http://www.w3.org/2000/svg">
  <!-- Car body -->
  <rect x="0" y="9" width="36" height="12" rx="3.5" fill="#fbbf24"/>
  <!-- Roof -->
  <path d="M7 9 Q10 1 15 0 Q21 -1 28 1 Q32 3 30 9Z" fill="#fbbf24"/>
  <!-- Windshield -->
  <path d="M10 9 Q12 2 16 1 Q22 0 27 2 Q29 5 28 9Z" fill="#000000" fill-opacity="0.28"/>
  <!-- Wheel left -->
  <circle cx="9" cy="21" r="5" fill="#1a1a1a" stroke="#fbbf24" stroke-width="2"/>
  <circle cx="9" cy="21" r="1.8" fill="#fbbf24"/>
  <!-- Wheel right -->
  <circle cx="27" cy="21" r="5" fill="#1a1a1a" stroke="#fbbf24" stroke-width="2"/>
  <circle cx="27" cy="21" r="1.8" fill="#fbbf24"/>
  <!-- Road dashes -->
  <rect x="1"  y="28" width="6" height="2" rx="1" fill="#fbbf24" fill-opacity="0.45"/>
  <rect x="10" y="28" width="6" height="2" rx="1" fill="#fbbf24" fill-opacity="0.45"/>
  <rect x="19" y="28" width="6" height="2" rx="1" fill="#fbbf24" fill-opacity="0.45"/>
  <rect x="28" y="28" width="6" height="2" rx="1" fill="#fbbf24" fill-opacity="0.45"/>
</svg>